<?xml version="1.0" encoding="utf-8"?>
<!-- Generator: Adobe Illustrator 15.1.0, SVG Export Plug-In . SVG Version: 6.00 Build 0)  -->
<!DOCTYPE svg PUBLIC "-//W3C//DTD SVG 1.1//EN" "http://www.w3.org/Graphics/SVG/1.1/DTD/svg11.dtd">
<svg version="1.1" id="Calque_1" xmlns="http://www.w3.org/2000/svg" xmlns:xlink="http://www.w3.org/1999/xlink" x="0px" y="0px"
	 width="720.146px" height="636.003px" viewBox="0 0 720.146 636.003" enable-background="new 0 0 720.146 636.003"
	 xml:space="preserve">
<g id="Calque_6">
	<path fill="#8A0000" d="M661.578,104.514l48.611,311.919c7.696,49.69-15.26,94.249-68.866,133.679l-441.547,85.069
		c-52.123,5.131-99.381-13.774-141.781-56.713L9.585,278.702c-24.17-61.573-2.632-112.887,64.613-153.933L544.103,23.497
		C613.505,28.896,652.665,55.904,661.578,104.514z"/>
</g>
<g id="Calque_3">
	
		<linearGradient id="SVGID_1_" gradientUnits="userSpaceOnUse" x1="8.4668" y1="92.9609" x2="720.1064" y2="92.9609" gradientTransform="matrix(1 0 0 -1 0.04 399.2148)">
		<stop  offset="0" style="stop-color:#FF6B00"/>
		<stop  offset="0.2627" style="stop-color:#FF6400"/>
		<stop  offset="1" style="stop-color:#E93500"/>
	</linearGradient>
	<path fill="url(#SVGID_1_)" d="M670.086,81.018l48.611,311.919c7.696,49.693-15.261,94.254-68.866,133.679l-441.548,85.07
		c-52.123,5.133-99.385-13.773-141.781-56.714l-48.41-299.766c-24.17-61.572-2.632-112.884,64.613-153.934L552.609,0
		C622.013,5.4,661.173,32.407,670.086,81.018z"/>
</g>
<g id="Calque_5">
	<path fill="#FFFFFF" d="M449.919,117.882l-4.051,20.053c20.12,0,32.071,4.925,35.851,14.785
		c-2.565,17.286-7.834,28.692-15.8,34.229c-5.804,0-12.42,2.229-19.849,6.686c-17.419-11.615-31.662-18.769-42.737-21.471
		c5.942-25.654,3.646-39.021-6.887-40.103c-9.722-4.051-15.867-13.368-18.431-27.951c8.234-13.502,22.076-17.553,41.521-12.153
		C436.822,98.303,446.95,106.943,449.919,117.882z M565.369,93.778c105.324,111.805,134.559,216.185,87.702,313.135
		c-47.263,97.223-170.948,132.666-371.063,106.335l134.085-123.146c10.804-13.502,16.002-27.953,15.596-43.345
		c-2.159-26.331-3.172-36.054-3.038-29.168c-4.051-20.255-24.913-41.384-62.587-63.396c-33.216-18.905-59.074-29.299-77.573-31.19
		c-63.195-0.945-100.666,6.413-112.413,22.076c-2.026-21.336,16.945-43.478,56.914-66.435
		c27.276-17.824,80.005-15.462,158.189,7.089l22.075,9.316l-8.505-4.658l44.963,23.497c37.676,20.116,67.044,22.28,88.107,6.479
		C558.887,204.438,568.07,162.239,565.369,93.778z M79.668,508.792c-7.425-8.64-8.438-17.485-3.038-26.531
		c5.4-7.293,12.962-13.705,22.683-19.242c12.693,3.375,25.591,2.563,38.688-2.431c50.769-36.191,97.291-76.835,139.553-121.933
		c23.767-22.956,45.908-47.327,66.436-73.118c9.989,2.702,19.375,8.102,28.153,16.203
		C311.648,354.116,251.36,423.995,191.27,491.376l-7.291,31.594c-7.835,12.559-16.137,21.604-24.915,27.143
		c-7.02,2.025-13.569,0.739-19.645-3.85c-4.591-9.992-6.482-18.298-5.673-24.913C106.2,520.406,88.173,516.217,79.668,508.792z"/>
</g>
</svg>
